<mxfile host="65bd71144e">
    <diagram id="pIaEtrtLPv3HG8r1JEND" name="Page-1">
        <mxGraphModel dx="760" dy="429" grid="1" gridSize="10" guides="1" tooltips="1" connect="1" arrows="1" fold="1" page="1" pageScale="1" pageWidth="850" pageHeight="1100" math="0" shadow="0">
            <root>
                <mxCell id="0"/>
                <mxCell id="1" parent="0"/>
                <mxCell id="6" value="" style="rounded=0;whiteSpace=wrap;html=1;" parent="1" vertex="1">
                    <mxGeometry x="30" y="20" width="740" height="400" as="geometry"/>
                </mxCell>
                <mxCell id="7" value="" style="rounded=1;whiteSpace=wrap;html=1;strokeWidth=2;fillWeight=4;hachureGap=8;hachureAngle=45;fillColor=#1ba1e2;sketch=1;" parent="1" vertex="1">
                    <mxGeometry x="41" y="40" width="249" height="30" as="geometry"/>
                </mxCell>
                <mxCell id="8" value="" style="rounded=1;whiteSpace=wrap;html=1;strokeWidth=2;fillWeight=4;hachureGap=8;hachureAngle=45;fillColor=#1ba1e2;sketch=1;" parent="1" vertex="1">
                    <mxGeometry x="42" y="120" width="179" height="21" as="geometry"/>
                </mxCell>
                <mxCell id="9" value="" style="rounded=1;whiteSpace=wrap;html=1;strokeWidth=2;fillWeight=4;hachureGap=8;hachureAngle=45;fillColor=#1ba1e2;sketch=1;" parent="1" vertex="1">
                    <mxGeometry x="41" y="89" width="179" height="21" as="geometry"/>
                </mxCell>
                <mxCell id="13" value="" style="aspect=fixed;html=1;points=[];align=center;image;fontSize=12;image=img/lib/azure2/general/Image.svg;fillColor=#BA6D07;" parent="1" vertex="1">
                    <mxGeometry x="430" y="79.5" width="305.45" height="210" as="geometry"/>
                </mxCell>
                <mxCell id="K6rVXLoCO1Q3bZZUm_vz-13" value="" style="html=1;verticalLabelPosition=bottom;labelBackgroundColor=#ffffff;verticalAlign=top;shadow=0;dashed=0;strokeWidth=1;shape=mxgraph.ios7ui.slider;barPos=20;strokeColor=#0080f0;strokeColor2=#a0a0a0;" vertex="1" parent="1">
                    <mxGeometry x="42" y="177" width="368" height="15" as="geometry"/>
                </mxCell>
            </root>
        </mxGraphModel>
    </diagram>
    <diagram id="G2oJsogTn_ymCOI9L5I9" name="Page-2">
        <mxGraphModel dx="760" dy="429" grid="1" gridSize="10" guides="1" tooltips="1" connect="1" arrows="1" fold="1" page="1" pageScale="1" pageWidth="827" pageHeight="1169" math="0" shadow="0">
            <root>
                <mxCell id="9c-rv9oPT0CnzilGM7XC-0"/>
                <mxCell id="9c-rv9oPT0CnzilGM7XC-1" parent="9c-rv9oPT0CnzilGM7XC-0"/>
                <mxCell id="9c-rv9oPT0CnzilGM7XC-2" value="" style="rounded=0;whiteSpace=wrap;html=1;" parent="9c-rv9oPT0CnzilGM7XC-1" vertex="1">
                    <mxGeometry x="30" y="20" width="740" height="400" as="geometry"/>
                </mxCell>
                <mxCell id="9c-rv9oPT0CnzilGM7XC-3" value="" style="rounded=1;whiteSpace=wrap;html=1;strokeWidth=2;fillWeight=4;hachureGap=8;hachureAngle=45;fillColor=#1ba1e2;sketch=1;" parent="9c-rv9oPT0CnzilGM7XC-1" vertex="1">
                    <mxGeometry x="41" y="40" width="249" height="30" as="geometry"/>
                </mxCell>
                <mxCell id="9c-rv9oPT0CnzilGM7XC-5" value="" style="rounded=1;whiteSpace=wrap;html=1;strokeWidth=2;fillWeight=4;hachureGap=8;hachureAngle=45;fillColor=#1ba1e2;sketch=1;" parent="9c-rv9oPT0CnzilGM7XC-1" vertex="1">
                    <mxGeometry x="41" y="89" width="179" height="21" as="geometry"/>
                </mxCell>
                <mxCell id="9c-rv9oPT0CnzilGM7XC-9" value="" style="aspect=fixed;html=1;points=[];align=center;image;fontSize=12;image=img/lib/azure2/general/Image.svg;fillColor=#BA6D07;" parent="9c-rv9oPT0CnzilGM7XC-1" vertex="1">
                    <mxGeometry x="430" y="66.5" width="305.45" height="210" as="geometry"/>
                </mxCell>
                <mxCell id="9c-rv9oPT0CnzilGM7XC-10" value="" style="rounded=1;whiteSpace=wrap;html=1;strokeWidth=2;fillWeight=4;hachureGap=8;hachureAngle=45;fillColor=#1ba1e2;sketch=1;" parent="9c-rv9oPT0CnzilGM7XC-1" vertex="1">
                    <mxGeometry x="43" y="241" width="179" height="21" as="geometry"/>
                </mxCell>
                <mxCell id="DlYTRZ8-lxGGA8tTmSdB-0" value="" style="rounded=1;whiteSpace=wrap;html=1;strokeWidth=2;fillWeight=4;hachureGap=8;hachureAngle=45;fillColor=#1ba1e2;sketch=1;" vertex="1" parent="9c-rv9oPT0CnzilGM7XC-1">
                    <mxGeometry x="42" y="121" width="179" height="21" as="geometry"/>
                </mxCell>
                <mxCell id="DlYTRZ8-lxGGA8tTmSdB-1" value="" style="html=1;verticalLabelPosition=bottom;labelBackgroundColor=#ffffff;verticalAlign=top;shadow=0;dashed=0;strokeWidth=1;shape=mxgraph.ios7ui.slider;barPos=20;strokeColor=#0080f0;strokeColor2=#a0a0a0;" vertex="1" parent="9c-rv9oPT0CnzilGM7XC-1">
                    <mxGeometry x="41" y="180" width="359" height="15" as="geometry"/>
                </mxCell>
            </root>
        </mxGraphModel>
    </diagram>
</mxfile>